solid OpenSCAD_Model
  facet normal -1 0 0
    outer loop
      vertex 88.2 14 10
      vertex 88.2 12 -10
      vertex 88.2 12 -8
    endloop
  endfacet
  facet normal -1 0 0
    outer loop
      vertex 88.2 12 -10
      vertex 88.2 14 10
      vertex 88.2 14 -10
    endloop
  endfacet
  facet normal 0 0 -1
    outer loop
      vertex 88.2 12 -10
      vertex 88.2 14 -10
      vertex 98.2 14 -10
    endloop
  endfacet
  facet normal 0 1 0
    outer loop
      vertex 88.2 14 -10
      vertex 88.2 14 10
      vertex 98.2 14 -10
    endloop
  endfacet
  facet normal -1 0 0
    outer loop
      vertex 88.2 14 10
      vertex 88.2 12 -8
      vertex 88.2 12 8
    endloop
  endfacet
  facet normal -1 0 0
    outer loop
      vertex 88.2 12 8
      vertex 88.2 12 10
      vertex 88.2 14 10
    endloop
  endfacet
  facet normal 0 -1 0
    outer loop
      vertex 88.2 12 8
      vertex 88.2 12 -8
      vertex 98.2 12 8
    endloop
  endfacet
  facet normal 0 0 1
    outer loop
      vertex 88.2 14 10
      vertex 88.2 12 10
      vertex 98.2 12 10
    endloop
  endfacet
  facet normal 0 0 -1
    outer loop
      vertex 88.2 12 -10
      vertex 98.2 14 -10
      vertex 98.2 12 -10
    endloop
  endfacet
  facet normal 0 -1 0
    outer loop
      vertex 98.2 12 8
      vertex 88.2 12 -8
      vertex 98.2 12 -8
    endloop
  endfacet
  facet normal 1 0 0
    outer loop
      vertex 98.2 12 -10
      vertex 98.2 14 -10
      vertex 98.2 12 -8
    endloop
  endfacet
  facet normal 1 0 0
    outer loop
      vertex 98.2 14 -10
      vertex 98.2 12 8
      vertex 98.2 12 -8
    endloop
  endfacet
  facet normal 0 1 0
    outer loop
      vertex 88.2 14 10
      vertex 98.2 14 10
      vertex 98.2 14 -10
    endloop
  endfacet
  facet normal 0 0 1
    outer loop
      vertex 88.2 14 10
      vertex 98.2 12 10
      vertex 98.2 14 10
    endloop
  endfacet
  facet normal 1 0 0
    outer loop
      vertex 98.2 14 -10
      vertex 98.2 12 10
      vertex 98.2 12 8
    endloop
  endfacet
  facet normal 1 0 0
    outer loop
      vertex 98.2 14 -10
      vertex 98.2 14 10
      vertex 98.2 12 10
    endloop
  endfacet
  facet normal -1 0 0
    outer loop
      vertex 88.2 -1 -10
      vertex 88.2 -1 -8
      vertex 88.2 12 -8
    endloop
  endfacet
  facet normal 0 -1 0
    outer loop
      vertex 88.2 -1 -10
      vertex 98.2 -1 -8
      vertex 88.2 -1 -8
    endloop
  endfacet
  facet normal 0 0 1
    outer loop
      vertex 88.2 -1 -8
      vertex 98.2 -1 -8
      vertex 88.2 12 -8
    endloop
  endfacet
  facet normal -1 0 0
    outer loop
      vertex 88.2 -1 -10
      vertex 88.2 12 -8
      vertex 88.2 12 -10
    endloop
  endfacet
  facet normal 0 0 -1
    outer loop
      vertex 88.2 -1 -10
      vertex 88.2 12 -10
      vertex 98.2 12 -10
    endloop
  endfacet
  facet normal 0 -1 0
    outer loop
      vertex 88.2 -1 -10
      vertex 98.2 -1 -10
      vertex 98.2 -1 -8
    endloop
  endfacet
  facet normal 0 0 -1
    outer loop
      vertex 88.2 -1 -10
      vertex 98.2 12 -10
      vertex 98.2 -1 -10
    endloop
  endfacet
  facet normal 1 0 0
    outer loop
      vertex 98.2 -1 -10
      vertex 98.2 12 -10
      vertex 98.2 -1 -8
    endloop
  endfacet
  facet normal 0 0 1
    outer loop
      vertex 98.2 -1 -8
      vertex 98.2 12 -8
      vertex 88.2 12 -8
    endloop
  endfacet
  facet normal 1 0 0
    outer loop
      vertex 98.2 -1 -8
      vertex 98.2 12 -10
      vertex 98.2 12 -8
    endloop
  endfacet
  facet normal -1 0 0
    outer loop
      vertex 88.2 -1 8
      vertex 88.2 -1 10
      vertex 88.2 12 10
    endloop
  endfacet
  facet normal 0 -1 0
    outer loop
      vertex 88.2 -1 8
      vertex 98.2 -1 10
      vertex 88.2 -1 10
    endloop
  endfacet
  facet normal 0 0 1
    outer loop
      vertex 88.2 -1 10
      vertex 98.2 -1 10
      vertex 88.2 12 10
    endloop
  endfacet
  facet normal -1 0 0
    outer loop
      vertex 88.2 -1 8
      vertex 88.2 12 10
      vertex 88.2 12 8
    endloop
  endfacet
  facet normal 0 0 -1
    outer loop
      vertex 88.2 -1 8
      vertex 88.2 12 8
      vertex 98.2 12 8
    endloop
  endfacet
  facet normal 0 -1 0
    outer loop
      vertex 88.2 -1 8
      vertex 98.2 -1 8
      vertex 98.2 -1 10
    endloop
  endfacet
  facet normal 0 0 -1
    outer loop
      vertex 88.2 -1 8
      vertex 98.2 12 8
      vertex 98.2 -1 8
    endloop
  endfacet
  facet normal 1 0 0
    outer loop
      vertex 98.2 -1 8
      vertex 98.2 12 8
      vertex 98.2 -1 10
    endloop
  endfacet
  facet normal 0 0 1
    outer loop
      vertex 98.2 -1 10
      vertex 98.2 12 10
      vertex 88.2 12 10
    endloop
  endfacet
  facet normal 1 0 0
    outer loop
      vertex 98.2 -1 10
      vertex 98.2 12 8
      vertex 98.2 12 10
    endloop
  endfacet
endsolid OpenSCAD_Model
