solid OpenSCAD_Model
  facet normal -1 0 0
    outer loop
      vertex 342.29999999999995 9 463
      vertex 342.29999999999995 7 443
      vertex 342.29999999999995 7 445
    endloop
  endfacet
  facet normal -1 0 0
    outer loop
      vertex 342.29999999999995 7 443
      vertex 342.29999999999995 9 463
      vertex 342.29999999999995 9 443
    endloop
  endfacet
  facet normal 0 0 -1
    outer loop
      vertex 342.29999999999995 7 443
      vertex 342.29999999999995 9 443
      vertex 352.29999999999995 9 443
    endloop
  endfacet
  facet normal 0 1 0
    outer loop
      vertex 342.29999999999995 9 443
      vertex 342.29999999999995 9 463
      vertex 352.29999999999995 9 443
    endloop
  endfacet
  facet normal -1 0 0
    outer loop
      vertex 342.29999999999995 9 463
      vertex 342.29999999999995 7 445
      vertex 342.29999999999995 7 461
    endloop
  endfacet
  facet normal -1 0 0
    outer loop
      vertex 342.29999999999995 7 461
      vertex 342.29999999999995 7 463
      vertex 342.29999999999995 9 463
    endloop
  endfacet
  facet normal 0 -1 0
    outer loop
      vertex 342.29999999999995 7 461
      vertex 342.29999999999995 7 445
      vertex 352.29999999999995 7 461
    endloop
  endfacet
  facet normal 0 0 1
    outer loop
      vertex 342.29999999999995 9 463
      vertex 342.29999999999995 7 463
      vertex 352.29999999999995 7 463
    endloop
  endfacet
  facet normal 0 0 -1
    outer loop
      vertex 342.29999999999995 7 443
      vertex 352.29999999999995 9 443
      vertex 352.29999999999995 7 443
    endloop
  endfacet
  facet normal 0 -1 0
    outer loop
      vertex 352.29999999999995 7 461
      vertex 342.29999999999995 7 445
      vertex 352.29999999999995 7 445
    endloop
  endfacet
  facet normal 1 0 0
    outer loop
      vertex 352.29999999999995 9 443
      vertex 352.29999999999995 7 445
      vertex 352.29999999999995 7 443
    endloop
  endfacet
  facet normal 1 0 0
    outer loop
      vertex 352.29999999999995 9 443
      vertex 352.29999999999995 7 461
      vertex 352.29999999999995 7 445
    endloop
  endfacet
  facet normal 0 1 0
    outer loop
      vertex 342.29999999999995 9 463
      vertex 352.29999999999995 9 463
      vertex 352.29999999999995 9 443
    endloop
  endfacet
  facet normal 0 0 1
    outer loop
      vertex 342.29999999999995 9 463
      vertex 352.29999999999995 7 463
      vertex 352.29999999999995 9 463
    endloop
  endfacet
  facet normal 1 0 0
    outer loop
      vertex 352.29999999999995 9 443
      vertex 352.29999999999995 7 463
      vertex 352.29999999999995 7 461
    endloop
  endfacet
  facet normal 1 0 0
    outer loop
      vertex 352.29999999999995 9 443
      vertex 352.29999999999995 9 463
      vertex 352.29999999999995 7 463
    endloop
  endfacet
  facet normal -1 0 0
    outer loop
      vertex 342.29999999999995 0 443
      vertex 342.29999999999995 0 445
      vertex 342.29999999999995 7 445
    endloop
  endfacet
  facet normal 0 -1 0
    outer loop
      vertex 342.29999999999995 0 443
      vertex 352.29999999999995 0 445
      vertex 342.29999999999995 0 445
    endloop
  endfacet
  facet normal 0 0 1
    outer loop
      vertex 342.29999999999995 0 445
      vertex 352.29999999999995 0 445
      vertex 342.29999999999995 7 445
    endloop
  endfacet
  facet normal -1 0 0
    outer loop
      vertex 342.29999999999995 0 443
      vertex 342.29999999999995 7 445
      vertex 342.29999999999995 7 443
    endloop
  endfacet
  facet normal 0 0 -1
    outer loop
      vertex 342.29999999999995 0 443
      vertex 342.29999999999995 7 443
      vertex 352.29999999999995 7 443
    endloop
  endfacet
  facet normal 0 -1 0
    outer loop
      vertex 342.29999999999995 0 443
      vertex 352.29999999999995 0 443
      vertex 352.29999999999995 0 445
    endloop
  endfacet
  facet normal 0 0 -1
    outer loop
      vertex 342.29999999999995 0 443
      vertex 352.29999999999995 7 443
      vertex 352.29999999999995 0 443
    endloop
  endfacet
  facet normal 1 0 0
    outer loop
      vertex 352.29999999999995 0 443
      vertex 352.29999999999995 7 443
      vertex 352.29999999999995 0 445
    endloop
  endfacet
  facet normal 0 0 1
    outer loop
      vertex 352.29999999999995 0 445
      vertex 352.29999999999995 7 445
      vertex 342.29999999999995 7 445
    endloop
  endfacet
  facet normal 1 0 0
    outer loop
      vertex 352.29999999999995 0 445
      vertex 352.29999999999995 7 443
      vertex 352.29999999999995 7 445
    endloop
  endfacet
  facet normal -1 0 0
    outer loop
      vertex 342.29999999999995 0 461
      vertex 342.29999999999995 0 463
      vertex 342.29999999999995 7 463
    endloop
  endfacet
  facet normal 0 -1 0
    outer loop
      vertex 342.29999999999995 0 461
      vertex 352.29999999999995 0 463
      vertex 342.29999999999995 0 463
    endloop
  endfacet
  facet normal 0 0 1
    outer loop
      vertex 342.29999999999995 0 463
      vertex 352.29999999999995 0 463
      vertex 342.29999999999995 7 463
    endloop
  endfacet
  facet normal -1 0 0
    outer loop
      vertex 342.29999999999995 0 461
      vertex 342.29999999999995 7 463
      vertex 342.29999999999995 7 461
    endloop
  endfacet
  facet normal 0 0 -1
    outer loop
      vertex 342.29999999999995 0 461
      vertex 342.29999999999995 7 461
      vertex 352.29999999999995 7 461
    endloop
  endfacet
  facet normal 0 -1 0
    outer loop
      vertex 342.29999999999995 0 461
      vertex 352.29999999999995 0 461
      vertex 352.29999999999995 0 463
    endloop
  endfacet
  facet normal 0 0 -1
    outer loop
      vertex 342.29999999999995 0 461
      vertex 352.29999999999995 7 461
      vertex 352.29999999999995 0 461
    endloop
  endfacet
  facet normal 1 0 0
    outer loop
      vertex 352.29999999999995 0 461
      vertex 352.29999999999995 7 461
      vertex 352.29999999999995 0 463
    endloop
  endfacet
  facet normal 0 0 1
    outer loop
      vertex 352.29999999999995 0 463
      vertex 352.29999999999995 7 463
      vertex 342.29999999999995 7 463
    endloop
  endfacet
  facet normal 1 0 0
    outer loop
      vertex 352.29999999999995 0 463
      vertex 352.29999999999995 7 461
      vertex 352.29999999999995 7 463
    endloop
  endfacet
endsolid OpenSCAD_Model
